<?xml version="1.0" encoding="UTF-8"?>
<svg id="_1500_x_1500_px_Logo_6" data-name="1500 x 1500 px Logo 6" xmlns="http://www.w3.org/2000/svg" viewBox="0 0 1207.79 1345.72">
  <defs>
    <style>
      .cls-1 {
        letter-spacing: .04em;
      }

      .cls-2, .cls-3, .cls-4 {
        fill: #7165b1;
      }

      .cls-5 {
        letter-spacing: .06em;
      }

      .cls-6 {
        letter-spacing: .06em;
      }

      .cls-7 {
        letter-spacing: .02em;
      }

      .cls-3 {
        font-family: Montserrat-Medium, 'Montserrat Medium';
        font-size: 70.42px;
        font-weight: 500;
      }

      .cls-4, .cls-8 {
        font-family: KeplerStd-BoldScnDisp, 'Kepler Std';
        font-size: 759.16px;
        font-weight: 700;
      }

      .cls-8 {
        fill: #bea4d3;
      }
    </style>
  </defs>
  <g id="Graphic_Elements" data-name="Graphic Elements">
    <path class="cls-2" d="m1161.08,426.84l.04.03s-54.5-118.58-86.98-208.03c-32.47-89.45-113.97-12.56-34.97,56.17,45.82,39.87,66.43,77.37,75.61,101.15-43.6-44.02-102.5-93.98-176.77-136.51-18.82-10.77-38.96-19.82-59.92-27.42-25.42-29.33-180.01-200.47-334.9-210.92-169.44-11.43-140.43,54.86-33.95,70.61-92.19,2.48-157.32,33.32-229.26,84.28C180.22,226.87,8.04,213.45.34,364.53c-7.69,151.08,117.04,57.53,149.29-32.82,32.25-90.35,88.11-128.25,132.97-152.73,21.94-11.97,60.94-41.79,118.5-64.05l-10.43,6.52s-91.1,49.23-108.56,104.68c-17.45,55.45,116.23,90.65,100.38-2.08-15.15-88.66,69.66-123.84,77.13-126.76,50.94-11.18,112.19-14.06,184.51,1.62,89.1,19.32,147.48,64.76,179.37,97.08-169.87-40.79-136.53,87.35-27.87,84.23,52.13-1.5,93.05-1.56,121.52-1.22,30.87.37,60.36,10.34,82.95,27.87,46.57,36.15,126,123.73,165.12,195.31,6.96,12.74,28.62,12.83,35.54.07l7.03-12.96s-15.61-25.4-46.71-62.44Z"/>
    <path class="cls-2" d="m90.72,804.31l-.04-.02s47.64,103.38,76.02,181.37c21.85,60.04,72.54-12.54,30.57-48.97-40.05-34.76-58.07-67.46-66.09-88.19,38.11,38.38,89.59,81.94,154.51,119.02,16.45,9.39,34.05,17.28,52.37,23.9,22.22,25.57,157.34,174.78,292.73,183.89,62.97,4.24,111.69-1.57,146.9-9.65,22.75-5.22,20.95-32.51-2.34-35.68-33.25-4.52-74.22-10.23-114.89-16.23,80.58-2.16,137.51-29.05,200.39-73.48,87.2-61.61,202.69-54.43,244.42-181.64,28.71-87.51-104.95-42.74-130.49,28.62-28.19,78.77-77.02,111.81-116.23,133.16-19.18,10.44-53.27,36.43-103.57,55.84l9.12-5.68s79.63-42.92,94.89-91.27c11.92-37.78-98.66-61.89-87.74,1.81,13.24,77.3-60.88,107.98-67.42,110.52-44.53,9.75-98.06,12.26-161.27-1.41-77.88-16.84-128.9-56.46-156.78-84.64,72.82,17.44,75.4-74.9,24.36-73.44-45.57,1.31-81.33,1.36-106.21,1.06-26.98-.32-52.76-9.01-72.5-24.3-41.28-31.96-112.1-110.04-145.75-172.93-5.42-10.14-22.71-10.15-28.21-.05l-7.57,13.93s13.64,22.15,40.82,54.44Z"/>
    <g>
      <path class="cls-2" d="m334.56,133c-23.37-5.19-46.74-10.38-70.1-15.57-23.7-5.26-47.8-10.56-72.02-8.85-11.83.83-24.29,3.74-32.54,12.26s-10.07,23.98-1.11,31.75c3.69,3.2,8.54,4.67,13.29,5.86,41.39,10.33,125.02-5.05,162.5-25.43Z"/>
      <path class="cls-2" d="m336.14,127.26c-17.53-3.89-35.05-7.79-52.58-11.68-17.08-3.79-34.14-7.97-51.45-10.65-16.41-2.54-33.32-3.92-49.79-1.09-12.95,2.22-26.6,8.61-32.35,21.14-5.16,11.23-4.03,25.52,6.47,33.28,9.05,6.68,22.32,7.96,33.24,8.86,24.55,2.01,49.64-.92,73.76-5.39,25.28-4.69,51.33-11.34,74.12-23.59,6.75-3.63.75-13.91-6.01-10.28-17.74,9.54-37.71,15.12-57.27,19.52-21.83,4.91-44.2,8.09-66.6,8.39-9.34.12-18.82-.17-28.04-1.8-10.18-1.81-22.23-4.89-20.76-17.63s13.31-18.3,24.3-20.57c14.23-2.95,29.62-1.7,43.88.38,17.3,2.51,34.34,6.71,51.4,10.5,18.18,4.04,36.35,8.07,54.53,12.11,7.47,1.66,10.65-9.82,3.17-11.48Z"/>
    </g>
    <g>
      <path class="cls-2" d="m896,1019.17c14.26-8.45,40.2-24.35,56.77-24.61,16.57-.25,33.99,7.17,42.16,21.59,2.61,4.6,4.2,10.22,2.37,15.18-1.83,4.94-6.78,8.21-11.91,9.38s-10.5.56-15.71-.2c-25.38-3.7-50.24-10.91-73.67-21.34Z"/>
      <path class="cls-2" d="m899.01,1024.31c19.58-11.62,42.85-28.46,66.77-22.25,6.05,1.57,11.92,4.27,16.7,8.34s10.29,10.61,9.59,17.1c-.82,7.53-10.45,8.2-16.27,7.78-8.16-.59-16.39-2.37-24.36-4.13-17.98-3.96-35.58-9.68-52.43-17.11-6.95-3.07-13.01,7.19-6.01,10.28,18.37,8.11,37.41,14.5,57.06,18.7,15.49,3.31,39.64,10.26,50.66-5.58,10.25-14.72-4.39-33.06-16.88-40.63-13.23-8.01-29.78-10.31-44.57-5.84-16.51,4.99-31.54,14.32-46.27,23.06-6.59,3.91-.6,14.2,6.01,10.28Z"/>
    </g>
    <g>
      <path class="cls-2" d="m528.48,129.79c1.14,13.13,26.6,20.67,30.78,21.91,59.79,17.7,139.45-31.17,134.96-52.27-3.84-18.03-70.67-23.25-120.6-4.46-5.1,1.92-46.63,17.55-45.13,34.83Z"/>
      <path class="cls-2" d="m522.53,129.79c1.88,14.34,16.76,21.23,28.94,25.62,13.28,4.79,27.48,6.59,41.56,5.87,31.21-1.61,63.49-13.4,88.17-32.64,7.52-5.86,16.23-13.6,18.61-23.27s-4.85-17.19-13.34-20.96c-13.2-5.86-28.54-7.06-42.81-7.19-18.62-.18-37.47,2.14-55.47,6.89-13.39,3.53-26.57,8.69-38.78,15.24-11.06,5.93-27.62,15.85-26.88,30.46.39,7.62,12.3,7.67,11.91,0-.45-8.82,12.92-15.73,19.54-19.39,7.7-4.25,15.8-7.81,24.09-10.74,28.3-10,61.99-14.33,91.63-8.07,4.68.99,9.49,2.21,13.72,4.51,1.67.91,2.64,1.46,3.85,2.74.59.62.2-.06.84,1.1.14.26.33.65.33.73.05.55-.05,1.38-.24,2.04-.49,1.65-.69,1.99-1.82,3.8-2.17,3.5-5.23,6.54-8.34,9.34-19.2,17.25-45.91,27.69-71.07,31.99-15.38,2.62-31.43,2.46-46.45-1.98-4.73-1.4-9.39-3.08-13.8-5.29-3.92-1.97-11.62-5.67-12.28-10.78-.42-3.21-2.44-5.92-5.95-5.95-2.9-.03-6.37,2.77-5.95,5.95Z"/>
    </g>
    <g>
      <path class="cls-2" d="m503.38,1121.68c4.52,12.38,31.06,13.03,35.42,13.14,62.34,1.52,126.52-66.4,116.69-85.61-8.4-16.41-74.28-4.05-117.61,27.1-4.42,3.18-40.45,29.09-34.5,45.37Z"/>
      <path class="cls-2" d="m497.64,1123.26c5.5,13.28,21.61,16.06,34.42,17.15,14.14,1.21,28.4-.76,41.87-5.15,30.02-9.79,58.31-29.88,77.19-55.24,5.57-7.49,11.85-17.33,11.29-27.1-.59-10.36-9.82-15-19.04-16.3-13.98-1.98-28.65.74-42.18,4.22-17.43,4.49-34.44,11.3-50.15,20.08-12.24,6.84-23.78,15.21-34.11,24.7-9.54,8.77-23.99,23.17-19.3,37.63,2.35,7.26,13.85,4.15,11.48-3.17-2.82-8.69,9.04-19.25,14.63-24.54,6.78-6.43,14.17-12.26,21.95-17.43,24.25-16.09,54.5-28.36,83.8-30.08,4.7-.28,9.61-.38,14.23.67,1.55.35,3.25.92,4.05,1.28,1.52.69,2.01,1.3,2.32,1.78,0-.01.43,1.53.43,1.68.03,2.13,0,1.94-.57,3.99-1.09,3.96-3.09,7.55-5.3,11.04-13.95,22.06-37.38,39.39-60.79,50.19-14.24,6.57-29.86,10.6-45.61,10.19-4.86-.13-9.72-.53-14.48-1.51-4.36-.9-12.69-2.46-14.67-7.24-2.89-6.98-14.41-3.92-11.48,3.17Z"/>
    </g>
    <g>
      <path class="cls-2" d="m286.27,949.89c-11.3,6.79-6.91,32.97-6.19,37.27,10.32,61.5,89.18,111.65,106.17,98.35,14.52-11.35-10.1-73.71-48.89-110.34-3.96-3.74-36.23-34.21-51.09-25.28Z"/>
      <path class="cls-2" d="m283.27,944.75c-12.02,7.95-11.39,25.34-9.8,38,1.81,14.41,6.57,28.05,13.76,40.67,14.9,26.16,39.02,49.43,66.1,62.78,8.75,4.31,19.36,8.79,29.35,7.05s13.73-10.68,13.74-19.9c.03-13.82-5.43-27.67-11.03-40.06-7.51-16.61-17.39-32.16-28.93-46.26-9.29-11.36-19.96-21.41-31.68-30.22-10.78-8.1-27.73-19.67-41.51-12.06-6.71,3.7-.71,13.99,6.01,10.28,3.51-1.94,8.25-.23,11.69,1.18,5.73,2.35,11.06,5.95,16.05,9.58,8.01,5.83,15.49,12.56,22.3,19.74,11.33,11.94,20.89,25.5,28.83,39.9,6.59,11.95,12.35,24.71,15.21,38.12.83,3.92,1.5,9.27,1.07,12.52-.11.84-.31,1.67-.55,2.49-.33,1.13-.2.69-.48,1.21-.64,1.21-.13.86-1.63,1.53.96-.42-2.22.4-1.74.37-1.64.12-3.69-.03-4.47-.15-4.12-.64-8.21-2.02-12.04-3.65-23.13-9.82-43.95-28.45-58.47-48.71-9.23-12.88-16.34-27.27-19.13-42.97-.84-4.71-1.31-9.43-1.33-14.53s-.1-13.47,4.68-16.63c6.36-4.21.41-14.52-6.01-10.28Z"/>
    </g>
    <g>
      <path class="cls-2" d="m919.61,268.09c12.81-3.11,16.44-29.4,17.03-33.72,8.51-61.77-51.78-133.18-71.97-125.56-17.25,6.5-12.37,73.36,13.72,119.9,2.66,4.75,24.36,43.46,41.21,39.38Z"/>
      <path class="cls-2" d="m921.2,273.83c13.25-3.81,17.94-20.06,20.24-32.06,2.69-14.05,2.39-28.23-.41-42.26-6.08-30.44-22.86-61.09-45.58-82.35-7.1-6.64-16.48-14.42-26.71-14.84s-15.77,8.46-18.04,17.29c-3.51,13.66-2.3,28.52-.37,42.32,2.58,18.45,7.67,36.51,15.02,53.63,5.41,12.59,12.25,24.65,20.46,35.63s20.15,25.74,35.38,22.64c7.5-1.53,4.33-13.01-3.17-11.48-8.29,1.69-18-11.88-22.27-17.61-5.53-7.43-10.43-15.4-14.69-23.62-13.53-26.15-22.12-58.01-20.41-87.62.27-4.75.85-9.68,2.58-14.16.43-1.11,1.38-2.88,1.9-3.62.68-.96,1.26-1.19,1.56-1.32,1.25-.55.05-.1.77-.19.38-.05,2.23.11,1.04-.04,1.22.16,3.36.85,3.87,1.06,3.87,1.6,7.46,4.16,10.66,6.82,20.08,16.7,34.85,41.52,42.75,66.18,4.7,14.7,7.1,30.34,4.96,45.73-.71,5.11-1.82,10.21-3.43,15.12s-3.99,11.75-9.28,13.27c-7.35,2.11-4.22,13.61,3.17,11.48Z"/>
    </g>
  </g>
  <g id="Text">
    <text class="cls-4" transform="translate(514.13 899.66)"><tspan x="0" y="0">L</tspan></text>
    <text class="cls-8" transform="translate(348.62 813.07)"><tspan x="0" y="0">F</tspan></text>
    <text class="cls-3" transform="translate(205.09 1327.2)"><tspan class="cls-6" x="0" y="0">FEELING </tspan><tspan class="cls-5" x="367.04" y="0">L</tspan><tspan class="cls-7" x="413.31" y="0">A</tspan><tspan class="cls-1" x="466.48" y="0">V</tspan><tspan class="cls-6" x="519.79" y="0">ENDER</tspan></text>
  </g>
</svg>